<?xml version="1.0" encoding="UTF-8" standalone="no"?>
<!-- Created with Inkscape (http://www.inkscape.org/) -->

<svg
   version="1.1"
   id="svg1"
   width="421.936"
   height="172.71733"
   viewBox="0 0 421.936 172.71733"
   sodipodi:docname="fig1.svg"
   inkscape:version="1.3.2 (1:1.3.2+202311252150+091e20ef0f)"
   xmlns:inkscape="http://www.inkscape.org/namespaces/inkscape"
   xmlns:sodipodi="http://sodipodi.sourceforge.net/DTD/sodipodi-0.dtd"
   xmlns="http://www.w3.org/2000/svg"
   xmlns:svg="http://www.w3.org/2000/svg">
  <defs
     id="defs1" />
  <sodipodi:namedview
     id="namedview1"
     pagecolor="#ffffff"
     bordercolor="#000000"
     borderopacity="0.25"
     inkscape:showpageshadow="2"
     inkscape:pageopacity="0.0"
     inkscape:pagecheckerboard="0"
     inkscape:deskcolor="#d1d1d1"
     inkscape:zoom="2.744492"
     inkscape:cx="210.968"
     inkscape:cy="86.354779"
     inkscape:window-width="1312"
     inkscape:window-height="704"
     inkscape:window-x="0"
     inkscape:window-y="0"
     inkscape:window-maximized="1"
     inkscape:current-layer="g1">
    <inkscape:page
       x="0"
       y="0"
       inkscape:label="1"
       id="page1"
       width="421.936"
       height="172.71733"
       margin="0"
       bleed="0" />
  </sodipodi:namedview>
  <g
     id="g1"
     inkscape:groupmode="layer"
     inkscape:label="1">
    <path
       id="path1"
       d="m 45.85612,16.56442 h -91.71224 c -2.20095,0 -3.98511,-1.78416 -3.98511,-3.9851 V -7.79726 c 0,-2.20094 1.78416,-3.9851 3.98511,-3.9851 h 91.71224 c 2.20095,0 3.98511,1.78416 3.98511,3.9851 v 20.37658 c 0,2.20094 -1.78416,3.9851 -3.98511,3.9851 z"
       style="fill:#ffd9b3;fill-opacity:1;fill-rule:nonzero;stroke:#000000;stroke-width:0.3985;stroke-linecap:butt;stroke-linejoin:miter;stroke-miterlimit:10;stroke-dasharray:none;stroke-opacity:1"
       transform="matrix(1.3333333,0,0,-1.3333333,205.09067,35.634667)" />
    <path
       id="path2"
       d="M 1.827,-6.9154531 H 0.936375 v 6.91406247 H 1.827 Z m 5.2763672,3.9492187 c 0,-0.65625 -0.1523438,-1.5703125 -1.3710938,-1.5703125 -0.890625,0 -1.3828125,0.6796875 -1.4414062,0.7617188 V -4.4896719 H 3.5760234 v 4.48828127 H 4.3494609 V -2.4388906 c 0,-0.65625 0.2460938,-1.4882813 1.0078125,-1.4882813 0.9609375,0 0.9609375,0.703125 0.9609375,1.03125 v 2.89453127 H 7.1033672 Z M 9.6609844,-3.8451406 H 11.067234 V -4.4193594 H 9.6609844 v -1.265625 H 8.9695781 v 1.265625 H 8.1023906 v 0.5742188 h 0.84375 v 2.6601562 c 0,0.59765627 0.1289063,1.28906252 0.8203125,1.28906252 0.7031249,0 1.2070309,-0.24609375 1.4531249,-0.375 l -0.152344,-0.5859375 c -0.257812,0.2109375 -0.585937,0.328125 -0.902343,0.328125 -0.3632816,0 -0.5039066,-0.3046875 -0.5039066,-0.83203122 z m 3.4101566,1.7109375 c 0,-0.9960938 0.726562,-1.7109375 1.699218,-1.734375 v -0.6679688 c -0.890625,0.011719 -1.429687,0.5039063 -1.746093,0.9609375 v -0.9140625 h -0.691407 v 4.48828127 h 0.738282 z m 6.521484,-0.058594 c 0,-1.3359375 -0.996094,-2.4023437 -2.179688,-2.4023437 -1.230468,0 -2.191406,1.1015625 -2.191406,2.4023437 0,1.31250002 1.007813,2.29687502 2.179688,2.29687502 1.195312,0 2.191406,-1.0078125 2.191406,-2.29687502 z m -2.191406,1.66406252 c -0.691407,0 -1.40625,-0.56250002 -1.40625,-1.76953122 0,-1.1953125 0.75,-1.6875 1.40625,-1.6875 0.691406,0 1.40625,0.515625 1.40625,1.6875 0,1.1835937 -0.667969,1.76953122 -1.40625,1.76953122 z m 7.101562,-6.38671872 h -0.75 v 2.9296875 c -0.527344,-0.4335938 -1.078125,-0.5507813 -1.453125,-0.5507813 -0.984375,0 -1.757812,1.0429688 -1.757812,2.3203125 0,1.31250002 0.761718,2.32031252 1.710937,2.32031252 0.328125,0 0.914063,-0.08203125 1.476563,-0.62109375 v 0.515625 h 0.773437 z m -0.773437,5.53125 c 0,0.140625 -0.01172,0.3164062 -0.328125,0.60937497 -0.234375,0.19921875 -0.480469,0.26953125 -0.738282,0.26953125 -0.621093,0 -1.347656,-0.45703125 -1.347656,-1.69921872 0,-1.3125 0.855469,-1.7226563 1.441406,-1.7226563 0.445313,0 0.75,0.234375 0.972657,0.5507813 z m 5.932617,-3.0351563 h -0.785156 v 2.8828125 c 0,0.75000002 -0.550782,1.10156252 -1.195313,1.10156252 -0.703125,0 -0.773437,-0.26953125 -0.773437,-0.69140622 v -3.2929688 h -0.773438 v 3.328125 c 0,0.72656252 0.222656,1.19531252 1.054688,1.19531252 0.527343,0 1.230468,-0.15234375 1.722656,-0.5859375 v 0.48046875 h 0.75 z m 4.901367,0.2578125 c -0.597656,-0.3398437 -0.9375,-0.4335937 -1.535156,-0.4335937 -1.394531,0 -2.191406,1.2070312 -2.191406,2.3789062 0,1.24218752 0.902343,2.32031252 2.144531,2.32031252 0.539062,0 1.089844,-0.140625 1.628906,-0.50390625 l -0.05859,-0.66796877 c -0.515625,0.39843752 -1.054687,0.53906252 -1.558593,0.53906252 -0.820313,0 -1.382813,-0.71484372 -1.382813,-1.69921872 0,-0.7734375 0.363281,-1.7226563 1.417969,-1.7226563 0.527344,0 0.867187,0.070312 1.40625,0.4335938 z m 4.426758,0 c -0.597656,-0.3398437 -0.9375,-0.4335937 -1.535156,-0.4335937 -1.394532,0 -2.191407,1.2070312 -2.191407,2.3789062 0,1.24218752 0.902344,2.32031252 2.144532,2.32031252 0.539062,0 1.089843,-0.140625 1.628906,-0.50390625 l -0.05859,-0.66796877 c -0.515625,0.39843752 -1.054687,0.53906252 -1.558594,0.53906252 -0.820312,0 -1.382812,-0.71484372 -1.382812,-1.69921872 0,-0.7734375 0.363281,-1.7226563 1.417969,-1.7226563 0.527343,0 0.867187,0.070312 1.40625,0.4335938 z m 1.96582,-2.6132812 h -0.890625 v 0.890625 h 0.890625 z m -0.07031,2.3554687 h -0.75 v 4.41796877 h 0.75 z m 4.971679,-2.4960937 H 45.072119 L 43.7479,-5.2513908 h 0.609375 z m 0.527344,4.7226562 c 0,-1.3359375 -0.996094,-2.4023437 -2.179687,-2.4023437 -1.230469,0 -2.191407,1.1015625 -2.191407,2.4023437 0,1.31250002 1.007813,2.29687502 2.179688,2.29687502 1.195312,0 2.191406,-1.0078125 2.191406,-2.29687502 z m -2.191406,1.66406252 c -0.691406,0 -1.40625,-0.56250002 -1.40625,-1.76953122 0,-1.1953125 0.75,-1.6875 1.40625,-1.6875 0.691406,0 1.40625,0.515625 1.40625,1.6875 0,1.1835937 -0.667969,1.76953122 -1.40625,1.76953122 z m 6.832031,-2.43750002 c 0,-0.65625 -0.152344,-1.5703125 -1.371094,-1.5703125 -0.890625,0 -1.382812,0.6796875 -1.441406,0.7617188 V -4.4896721 H 47.4979 v 4.48828127 h 0.773438 V -2.4388906 c 0,-0.65625 0.246094,-1.4882813 1.007812,-1.4882813 0.960938,0 0.960938,0.703125 0.960938,1.03125 v 2.89453127 h 0.785156 z m 8.100586,0.082031 c 0,-1.0078125 -0.726562,-1.7109375 -1.640625,-1.7109375 -0.644531,0 -1.101562,0.1640625 -1.570312,0.4335937 l 0.07031,0.65625 c 0.515625,-0.375 1.007813,-0.5039062 1.5,-0.5039062 0.46875,0 0.867188,0.3984375 0.867188,1.1367187 v 0.4335938 c -1.5,0.011719 -2.765625,0.4335937 -2.765625,1.3125 0,0.42187497 0.269531,1.23046872 1.136718,1.23046872 0.140625,0 1.078125,-0.01171875 1.652344,-0.46875 v 0.36328125 h 0.75 z m -0.773437,1.5703125 c 0,0.1875 0,0.43359372 -0.339844,0.62109372 -0.292969,0.1875 -0.667969,0.1875 -0.773438,0.1875 -0.480468,0 -0.925781,-0.22265625 -0.925781,-0.64453122 0,-0.6914063 1.605469,-0.7617188 2.039063,-0.7851563 z m 8.411132,-1.5703125 c 1.242188,0 2.296875,-0.9023438 2.296875,-2.015625 0,-1.0664063 -0.984375,-2.015625 -2.367187,-2.015625 h -2.472656 v 6.91406247 h 0.878906 V -2.8842031 Z m -0.28125,-3.46875 c 1.089844,0 1.769532,0.609375 1.769532,1.453125 0,0.7851562 -0.632813,1.4414062 -1.769532,1.4414062 h -1.40625 v -2.8945312 z m 6.84668,3.46875 c 0,-1.0078125 -0.726562,-1.7109375 -1.640625,-1.7109375 -0.644531,0 -1.101562,0.1640625 -1.570312,0.4335937 l 0.07031,0.65625 c 0.515625,-0.375 1.007813,-0.5039062 1.5,-0.5039062 0.46875,0 0.867188,0.3984375 0.867188,1.1367187 v 0.4335938 c -1.5,0.011719 -2.765625,0.4335937 -2.765625,1.3125 0,0.42187497 0.269531,1.23046872 1.136718,1.23046872 0.140625,0 1.078125,-0.01171875 1.652344,-0.46875 v 0.36328125 h 0.75 z m -0.773437,1.5703125 c 0,0.1875 0,0.43359372 -0.339844,0.62109372 -0.292969,0.1875 -0.667969,0.1875 -0.773438,0.1875 -0.480468,0 -0.925781,-0.22265625 -0.925781,-0.64453122 0,-0.6914063 1.605469,-0.7617188 2.039063,-0.7851563 z m 5.923828,-1.6523438 c 0,-0.65625 -0.152344,-1.5703125 -1.371094,-1.5703125 -0.890625,0 -1.382813,0.6796875 -1.441406,0.7617188 V -4.4896719 H 74.952 v 4.48828127 h 0.773437 V -2.4388906 c 0,-0.65625 0.246094,-1.4882813 1.007813,-1.4882813 0.960937,0 0.960937,0.703125 0.960937,1.03125 v 2.89453127 h 0.785157 z m 5.135742,-3.9492187 h -0.75 v 2.9296875 c -0.527344,-0.4335938 -1.078125,-0.5507813 -1.453125,-0.5507813 -0.984375,0 -1.757813,1.0429688 -1.757813,2.3203125 0,1.31250002 0.761719,2.32031252 1.710938,2.32031252 0.328125,0 0.914062,-0.08203125 1.476562,-0.62109375 v 0.515625 h 0.773438 z m -0.773438,5.53125 c 0,0.140625 -0.01172,0.3164062 -0.328125,0.60937497 -0.234375,0.19921875 -0.480468,0.26953125 -0.738281,0.26953125 -0.621094,0 -1.347656,-0.45703125 -1.347656,-1.69921872 0,-1.3125 0.855469,-1.7226563 1.441406,-1.7226563 0.445313,0 0.75,0.234375 0.972656,0.5507813 z m 5.560547,-1.5 c 0,-1.0078125 -0.726562,-1.7109375 -1.640625,-1.7109375 -0.644531,0 -1.101562,0.1640625 -1.570312,0.4335937 l 0.07031,0.65625 c 0.515625,-0.375 1.007813,-0.5039062 1.5,-0.5039062 0.46875,0 0.867188,0.3984375 0.867188,1.1367187 v 0.4335938 c -1.5,0.011719 -2.765625,0.4335937 -2.765625,1.3125 0,0.42187497 0.269531,1.23046872 1.136719,1.23046872 0.140625,0 1.078125,-0.01171875 1.652343,-0.46875 v 0.36328125 h 0.75 z m -0.773437,1.5703125 c 0,0.1875 0,0.43359372 -0.339844,0.62109372 -0.292969,0.1875 -0.667969,0.1875 -0.773437,0.1875 -0.480469,0 -0.925782,-0.22265625 -0.925782,-0.64453122 0,-0.6914063 1.605469,-0.7617188 2.039063,-0.7851563 z m 5.009765,-2.9648438 c -0.527343,-0.234375 -0.925781,-0.3164062 -1.441406,-0.3164062 -0.246094,0 -1.652344,0 -1.652344,1.3007812 0,0.4921875 0.292969,0.8085938 0.539063,0.9960938 0.304687,0.2226562 0.527344,0.2695312 1.078125,0.375 0.351562,0.070312 0.9375,0.1875 0.9375,0.7148437 0,0.69140627 -0.785156,0.69140627 -0.9375,0.69140627 -0.808594,0 -1.371094,-0.375 -1.546875,-0.49218747 L 89.4979,-0.32951613 c 0.316407,0.1640625 0.867188,0.43359375 1.675782,0.43359375 0.175781,0 0.726562,0 1.148437,-0.31640625 0.316406,-0.234375 0.480469,-0.6328125 0.480469,-1.06640627 0,-0.5507812 -0.363281,-0.8789062 -0.386719,-0.9140625 C 92.02915,-2.5443599 91.759619,-2.6029536 91.255713,-2.6967036 90.71665,-2.8021724 90.2479,-2.8959224 90.2479,-3.3881099 c 0,-0.6210937 0.726563,-0.6210937 0.855469,-0.6210937 0.316406,0 0.84375,0.046875 1.40625,0.3867187 z m 0,0"
       style="fill:#000000;fill-opacity:1;fill-rule:nonzero;stroke:none"
       aria-label="Introducci´onaPandas"
       transform="matrix(1.3333333,0,0,1.3333333,143.064,35.634667)" />
    <path
       id="path3"
       d="m 38.53511,16.56442 h -77.07022 c -2.20094,0 -3.98511,-1.78416 -3.98511,-3.9851 V -7.79726 c 0,-2.20094 1.78417,-3.9851 3.98511,-3.9851 h 77.07022 c 2.20094,0 3.98511,1.78416 3.98511,3.9851 v 20.37658 c 0,2.20094 -1.78417,3.9851 -3.98511,3.9851 z"
       style="fill:#ffd9b3;fill-opacity:1;fill-rule:nonzero;stroke:#000000;stroke-width:0.3985;stroke-linecap:butt;stroke-linejoin:miter;stroke-miterlimit:10;stroke-dasharray:none;stroke-opacity:1"
       transform="matrix(1.3333333,0,0,-1.3333333,70.242667,89.546667)" />
    <path
       id="path4"
       d="M 2.6264062,-4.9803125 H 1.794375 v 0.8320313 H 2.6264062 Z M 3.90375,0.89078125 C 3.2592187,1.3595313 2.59125,1.4298438 2.2279687,1.4298438 c -0.6210937,0 -0.890625,-0.2578125 -0.890625,-0.91406255 0,-0.46875 0.1523438,-0.62109375 0.2929688,-0.78515625 0.65625,-0.71484375 0.9140625,-1.6875 0.9140625,-2.6484375 V -3.2342187 H 1.8764062 v 0.5625 c 0,0.4804687 -0.1523437,1.2890625 -0.8320312,1.96874995 -0.17578125,0.1875 -0.48046875,0.4921875 -0.48046875,1.20703125 0,0.796875 0.421875,1.5351563 1.66406245,1.5351563 0.5859375,0 1.265625,-0.140625 1.9101563,-0.5273438 z m 6.108398,-1.21875 c 1.089844,-0.84374995 1.453125,-2.06249995 1.453125,-3.10546875 0,-2.0976562 -1.441406,-3.703125 -3.0937496,-3.703125 -1.6992187,0 -3.1054687,1.6289063 -3.1054687,3.703125 0,2.109375 1.4648437,3.65625 3.09375,3.65625 0.1640625,0 0.5273437,-0.0117188 0.9609375,-0.1875 l 0.8554688,1.2070313 h 1.019531 z M 8.9223047,-0.50375 c 0,0 -0.2695313,0.0820313 -0.5507813,0.0820313 -1.171875,0 -2.25,-1.1601562 -2.25,-3.0117188 0,-1.8632811 1.078125,-3.0585936 2.2382813,-3.0585936 1.1953125,0 2.2500003,1.2070312 2.2500003,3.0585936 0,0.6445313 -0.117188,1.7343751 -1.0195316,2.5429688 L 8.8051172,-1.9334375 H 7.9262109 Z M 16.3725,-4.4178125 H 15.587344 V -1.535 c 0,0.75 -0.550782,1.1015625 -1.195313,1.1015625 -0.703125,0 -0.773437,-0.26953125 -0.773437,-0.6914062 v -3.2929688 h -0.773438 v 3.328125 c 0,0.7265625 0.222656,1.1953125 1.054688,1.1953125 0.527343,0 1.230468,-0.15234375 1.722656,-0.5859375 V 1.5625e-4 h 0.75 z m 4.681641,-2.4960937 h -0.785157 l -1.324218,1.6640625 h 0.609375 z m 0.254882,4.734375 c 0,-0.3398438 -0.01172,-1.0898438 -0.398437,-1.6875 -0.410156,-0.6210938 -1.019531,-0.7265625 -1.371094,-0.7265625 -1.113281,0 -2.003906,1.0546875 -2.003906,2.34375 0,1.31249995 0.949219,2.3554687 2.144531,2.3554687 0.632813,0 1.195313,-0.234375 1.59375,-0.515625 l -0.07031,-0.6445312 c -0.621094,0.51562495 -1.277344,0.5507812 -1.511719,0.5507812 -0.796875,0 -1.429688,-0.703125 -1.464844,-1.6757812 z m -3.023437,-0.5507813 c 0.152344,-0.7617187 0.679687,-1.2539062 1.253906,-1.2539062 0.515625,0 1.066406,0.3398437 1.195313,1.2539062 z m 10.769531,0.5507813 c 0,-0.3398438 -0.01172,-1.0898438 -0.398437,-1.6875 -0.410157,-0.6210938 -1.019532,-0.7265625 -1.371094,-0.7265625 -1.113281,0 -2.003906,1.0546875 -2.003906,2.34375 0,1.31249995 0.949218,2.3554687 2.144531,2.3554687 0.632812,0 1.195312,-0.234375 1.59375,-0.515625 l -0.07031,-0.6445312 c -0.621093,0.51562495 -1.277343,0.5507812 -1.511718,0.5507812 -0.796875,0 -1.429688,-0.703125 -1.464844,-1.6757812 z M 26.03168,-2.7303125 c 0.152343,-0.7617187 0.679687,-1.2539062 1.253906,-1.2539062 0.515625,0 1.066406,0.3398437 1.195312,1.2539062 z m 6.74707,-1.546875 c -0.527344,-0.234375 -0.925781,-0.3164062 -1.441406,-0.3164062 -0.246094,0 -1.652344,0 -1.652344,1.3007812 0,0.4921875 0.292969,0.8085938 0.539062,0.9960938 0.304688,0.2226562 0.527344,0.2695312 1.078125,0.375 0.351563,0.070312 0.9375,0.1875 0.9375,0.7148437 0,0.69140625 -0.785156,0.69140625 -0.9375,0.69140625 -0.808593,0 -1.371093,-0.375 -1.546875,-0.49218745 l -0.117187,0.67968745 c 0.316406,0.1640625 0.867187,0.43359375 1.675781,0.43359375 0.175781,0 0.726563,0 1.148438,-0.31640625 0.316406,-0.234375 0.480468,-0.6328125 0.480468,-1.06640625 0,-0.5507812 -0.363281,-0.8789062 -0.386718,-0.9140625 -0.386719,-0.3515625 -0.65625,-0.4101562 -1.160157,-0.5039062 -0.539062,-0.1054688 -1.007812,-0.1992188 -1.007812,-0.6914063 0,-0.6210937 0.726562,-0.6210937 0.855469,-0.6210937 0.316406,0 0.84375,0.046875 1.40625,0.3867187 z m 7.230469,1.3945313 c 1.242187,0 2.296875,-0.9023438 2.296875,-2.015625 0,-1.0664063 -0.984375,-2.015625 -2.367188,-2.015625 H 37.46625 V 1.5625e-4 h 0.878906 V -2.8826562 Z m -0.28125,-3.46875 c 1.089843,0 1.769531,0.609375 1.769531,1.453125 0,0.7851562 -0.632813,1.4414062 -1.769531,1.4414062 h -1.40625 v -2.8945312 z m 6.834961,3.46875 c 0,-1.0078125 -0.726563,-1.7109375 -1.640625,-1.7109375 -0.644532,0 -1.101563,0.1640625 -1.570313,0.4335937 l 0.07031,0.65625 c 0.515625,-0.375 1.007812,-0.5039062 1.5,-0.5039062 0.46875,0 0.867187,0.3984375 0.867187,1.1367187 v 0.4335938 c -1.5,0.011719 -2.765625,0.4335937 -2.765625,1.3125 0,0.42187495 0.269531,1.2304687 1.136719,1.2304687 0.140625,0 1.078125,-0.01171875 1.652344,-0.46875 V 1.5625e-4 h 0.75 z m -0.773438,1.5703125 c 0,0.1875 0,0.4335937 -0.339844,0.6210937 -0.292968,0.1875 -0.667968,0.1875 -0.773437,0.1875 -0.480469,0 -0.925781,-0.22265625 -0.925781,-0.6445312 0,-0.6914063 1.605468,-0.7617188 2.039062,-0.7851563 z m 5.923828,-1.6523438 c 0,-0.65625 -0.152343,-1.5703125 -1.371093,-1.5703125 -0.890625,0 -1.382813,0.6796875 -1.441407,0.7617188 V -4.488125 H 48.185977 V 1.5625e-4 h 0.773437 V -2.4373437 c 0,-0.65625 0.246094,-1.4882813 1.007813,-1.4882813 0.960937,0 0.960937,0.703125 0.960937,1.03125 V 1.5625e-4 h 0.785156 z m 5.135742,-3.9492187 h -0.75 v 2.9296875 C 55.571719,-4.4178125 55.020937,-4.535 54.645937,-4.535 c -0.984375,0 -1.757812,1.0429688 -1.757812,2.3203125 0,1.3125 0.761719,2.3203125 1.710937,2.3203125 0.328125,0 0.914063,-0.08203125 1.476563,-0.62109375 v 0.515625 h 0.773437 z m -0.773437,5.53125 c 0,0.140625 -0.01172,0.3164062 -0.328125,0.60937495 -0.234375,0.19921875 -0.480469,0.26953125 -0.738281,0.26953125 -0.621094,0 -1.347657,-0.45703125 -1.347657,-1.6992187 0,-1.3125 0.855469,-1.7226563 1.441407,-1.7226563 0.445312,0 0.75,0.234375 0.972656,0.5507813 z m 5.569336,-1.5 c 0,-1.0078125 -0.726563,-1.7109375 -1.640625,-1.7109375 -0.644531,0 -1.101563,0.1640625 -1.570313,0.4335937 l 0.07031,0.65625 c 0.515625,-0.375 1.007812,-0.5039062 1.5,-0.5039062 0.46875,0 0.867187,0.3984375 0.867187,1.1367187 v 0.4335938 c -1.5,0.011719 -2.765625,0.4335937 -2.765625,1.3125 0,0.42187495 0.269532,1.2304687 1.136719,1.2304687 0.140625,0 1.078125,-0.01171875 1.652344,-0.46875 V 1.5625e-4 h 0.75 z m -0.773438,1.5703125 c 0,0.1875 0,0.4335937 -0.339843,0.6210937 -0.292969,0.1875 -0.667969,0.1875 -0.773438,0.1875 -0.480469,0 -0.925781,-0.22265625 -0.925781,-0.6445312 0,-0.6914063 1.605469,-0.7617188 2.039062,-0.7851563 z m 5.012696,-2.9648438 c -0.527344,-0.234375 -0.925781,-0.3164062 -1.441406,-0.3164062 -0.246094,0 -1.652344,0 -1.652344,1.3007812 0,0.4921875 0.292968,0.8085938 0.539062,0.9960938 0.304688,0.2226562 0.527344,0.2695312 1.078125,0.375 0.351563,0.070312 0.9375,0.1875 0.9375,0.7148437 0,0.69140625 -0.785156,0.69140625 -0.9375,0.69140625 -0.808594,0 -1.371094,-0.375 -1.546875,-0.49218745 l -0.117187,0.67968745 C 63.06,-0.16390625 63.610781,0.105625 64.419375,0.105625 c 0.175781,0 0.726563,0 1.148438,-0.31640625 0.316406,-0.234375 0.480468,-0.6328125 0.480468,-1.06640625 0,-0.5507812 -0.363281,-0.8789062 -0.386718,-0.9140625 -0.386719,-0.3515625 -0.65625,-0.4101562 -1.160157,-0.5039062 -0.539062,-0.1054688 -1.007812,-0.1992188 -1.007812,-0.6914063 0,-0.6210937 0.726562,-0.6210937 0.855469,-0.6210937 0.316406,0 0.84375,0.046875 1.40625,0.3867187 z M 68.822695,-2.285 c 0,-0.6796875 0.339844,-1.4179687 1.019532,-2.0039062 0.1875,-0.1523438 0.574218,-0.46875 0.574218,-1.1953125 0,-0.6679688 -0.398437,-1.5351563 -1.910156,-1.5351563 -0.597656,0 -1.136719,0.1640625 -1.664062,0.5273438 l 0.222656,0.6210937 C 67.310977,-6.081875 67.791445,-6.41 68.506289,-6.41 c 0.46875,0 1.125,0.070312 1.125,0.9257813 0,0.4453125 -0.210937,0.6328125 -0.339844,0.75 -1.136718,0.9726562 -1.136718,2.2382812 -1.136718,2.671875 v 0.3164062 h 0.667968 z m -0.75,2.28515625 h 0.832032 V -0.831875 h -0.832032 z m 0,0"
       style="fill:#000000;fill-opacity:1;fill-rule:nonzero;stroke:none"
       aria-label="¿Qu´eesPandas?"
       transform="matrix(1.3333333,0,0,1.3333333,22.92,89.546667)" />
    <path
       id="path5"
       d="m 43.18555,16.56442 h -86.3711 c -2.20094,0 -3.9851,-1.78416 -3.9851,-3.9851 V -7.79726 c 0,-2.20094 1.78416,-3.9851 3.9851,-3.9851 h 86.3711 c 2.20094,0 3.9851,1.78416 3.9851,3.9851 v 20.37658 c 0,2.20094 -1.78416,3.9851 -3.9851,3.9851 z"
       style="fill:#ffd9b3;fill-opacity:1;fill-rule:nonzero;stroke:#000000;stroke-width:0.3985;stroke-linecap:butt;stroke-linejoin:miter;stroke-miterlimit:10;stroke-dasharray:none;stroke-opacity:1"
       transform="matrix(1.3333333,0,0,-1.3333333,199.21333,89.546667)" />
    <path
       id="path6"
       d="m 5.1089453,-3.2810937 v -0.609375 h -3.28125 v -2.3554688 h 1.3710938 c 0.1171875,0 0.234375,0.011719 0.3515625,0.011719 h 1.828125 V -6.87875 H 0.93707031 V 1.5625e-4 H 5.5191016 v -0.703125 H 4.2651953 c -0.1171875,0 -0.2460937,0 -0.3632812,0 H 1.8276953 V -3.2810937 Z m 4.2626953,-0.9960938 c -0.5273437,-0.234375 -0.9257812,-0.3164062 -1.4414062,-0.3164062 -0.2460938,0 -1.6523438,0 -1.6523438,1.3007812 0,0.4921875 0.2929688,0.8085938 0.5390625,0.9960938 0.3046875,0.2226562 0.5273438,0.2695312 1.078125,0.375 0.3515625,0.070312 0.9375,0.1875 0.9375,0.7148437 0,0.69140625 -0.7851562,0.69140625 -0.9375,0.69140625 -0.8085937,0 -1.3710937,-0.375 -1.546875,-0.49218745 l -0.1171875,0.67968745 c 0.3164063,0.1640625 0.8671875,0.43359375 1.6757813,0.43359375 0.1757812,0 0.7265625,0 1.1484375,-0.31640625 0.3164062,-0.234375 0.4804687,-0.6328125 0.4804687,-1.06640625 0,-0.5507812 -0.3632812,-0.8789062 -0.3867187,-0.9140625 C 8.7622656,-2.5428125 8.4927344,-2.6014062 7.9888281,-2.6951562 7.4497656,-2.800625 6.9810156,-2.894375 6.9810156,-3.3865625 c 0,-0.6210937 0.7265625,-0.6210937 0.8554688,-0.6210937 0.3164062,0 0.84375,0.046875 1.40625,0.3867187 z m 2.1416014,0.4335938 h 1.40625 v -0.5742188 h -1.40625 v -1.265625 h -0.691406 v 1.265625 H 9.9546484 v 0.5742188 h 0.8437496 v 2.6601562 c 0,0.59765625 0.128907,1.2890625 0.820313,1.2890625 0.703125,0 1.207031,-0.24609375 1.453125,-0.375 l -0.152344,-0.5859375 c -0.257812,0.2109375 -0.585937,0.328125 -0.902344,0.328125 -0.363281,0 -0.503906,-0.3046875 -0.503906,-0.8320312 z m 3.410156,1.7109375 c 0,-0.9960938 0.726563,-1.7109375 1.699219,-1.734375 V -4.535 c -0.890625,0.011719 -1.429687,0.5039063 -1.746094,0.9609375 V -4.488125 H 14.185117 V 1.5625e-4 h 0.738281 z m 6.181641,-2.2851563 H 20.319883 V -1.535 c 0,0.75 -0.550781,1.1015625 -1.195313,1.1015625 -0.703125,0 -0.773437,-0.26953125 -0.773437,-0.6914062 v -3.2929688 h -0.773438 v 3.328125 c 0,0.7265625 0.222657,1.1953125 1.054688,1.1953125 0.527344,0 1.230469,-0.15234375 1.722656,-0.5859375 V 1.5625e-4 h 0.75 z M 26.006406,-4.16 c -0.597656,-0.3398437 -0.9375,-0.4335937 -1.535156,-0.4335937 -1.394531,0 -2.191406,1.2070312 -2.191406,2.3789062 0,1.2421875 0.902343,2.3203125 2.144531,2.3203125 0.539062,0 1.089844,-0.140625 1.628906,-0.50390625 L 25.994687,-1.06625 c -0.515625,0.3984375 -1.054687,0.5390625 -1.558593,0.5390625 -0.820313,0 -1.382813,-0.7148437 -1.382813,-1.6992187 0,-0.7734375 0.363281,-1.7226563 1.417969,-1.7226563 0.527344,0 0.867187,0.070312 1.40625,0.4335938 z m 2.085938,0.3164063 h 1.40625 v -0.5742188 h -1.40625 v -1.265625 h -0.691407 v 1.265625 H 26.53375 v 0.5742188 h 0.84375 v 2.6601562 c 0,0.59765625 0.128906,1.2890625 0.820312,1.2890625 0.703125,0 1.207032,-0.24609375 1.453125,-0.375 l -0.152343,-0.5859375 c -0.257813,0.2109375 -0.585938,0.328125 -0.902344,0.328125 -0.363281,0 -0.503906,-0.3046875 -0.503906,-0.8320312 z m 6.1875,-0.5742188 H 33.494687 V -1.535 c 0,0.75 -0.550781,1.1015625 -1.195312,1.1015625 -0.703125,0 -0.773438,-0.26953125 -0.773438,-0.6914062 V -4.4178125 H 30.7525 v 3.328125 c 0,0.7265625 0.222656,1.1953125 1.054687,1.1953125 0.527344,0 1.230469,-0.15234375 1.722657,-0.5859375 V 1.5625e-4 h 0.75 z m 2.370117,2.2851563 c 0,-0.9960938 0.726562,-1.7109375 1.699219,-1.734375 V -4.535 c -0.890625,0.011719 -1.429688,0.5039063 -1.746094,0.9609375 V -4.488125 H 35.91168 V 1.5625e-4 h 0.738281 z m 5.818359,-0.75 c 0,-1.0078125 -0.726562,-1.7109375 -1.640625,-1.7109375 -0.644531,0 -1.101562,0.1640625 -1.570312,0.4335937 l 0.07031,0.65625 c 0.515625,-0.375 1.007813,-0.5039062 1.5,-0.5039062 0.46875,0 0.867188,0.3984375 0.867188,1.1367187 v 0.4335938 c -1.5,0.011719 -2.765625,0.4335937 -2.765625,1.3125 0,0.42187495 0.269531,1.2304687 1.136719,1.2304687 0.140625,0 1.078125,-0.01171875 1.652343,-0.46875 V 1.5625e-4 h 0.75 z m -0.773437,1.5703125 c 0,0.1875 0,0.4335937 -0.339844,0.6210937 -0.292969,0.1875 -0.667969,0.1875 -0.773437,0.1875 -0.480469,0 -0.925782,-0.22265625 -0.925782,-0.6445312 0,-0.6914063 1.605469,-0.7617188 2.039063,-0.7851563 z m 5.009765,-2.9648438 c -0.527343,-0.234375 -0.925781,-0.3164062 -1.441406,-0.3164062 -0.246094,0 -1.652344,0 -1.652344,1.3007812 0,0.4921875 0.292969,0.8085938 0.539063,0.9960938 0.304687,0.2226562 0.527344,0.2695312 1.078125,0.375 0.351562,0.070312 0.9375,0.1875 0.9375,0.7148437 0,0.69140625 -0.785156,0.69140625 -0.9375,0.69140625 -0.808594,0 -1.371094,-0.375 -1.546875,-0.49218745 l -0.117188,0.67968745 c 0.316407,0.1640625 0.867188,0.43359375 1.675782,0.43359375 0.175781,0 0.726562,0 1.148437,-0.31640625 0.316406,-0.234375 0.480469,-0.6328125 0.480469,-1.06640625 0,-0.5507812 -0.363281,-0.8789062 -0.386719,-0.9140625 -0.386719,-0.3515625 -0.65625,-0.4101562 -1.160156,-0.5039062 -0.539063,-0.1054688 -1.007813,-0.1992188 -1.007813,-0.6914063 0,-0.6210937 0.726563,-0.6210937 0.855469,-0.6210937 0.316406,0 0.84375,0.046875 1.40625,0.3867187 z m 8.039063,-2.6367187 h -0.75 v 2.9296875 C 53.466367,-4.4178125 52.915586,-4.535 52.540586,-4.535 c -0.984375,0 -1.757813,1.0429688 -1.757813,2.3203125 0,1.3125 0.761719,2.3203125 1.710938,2.3203125 0.328125,0 0.914062,-0.08203125 1.476562,-0.62109375 v 0.515625 h 0.773438 z m -0.773438,5.53125 c 0,0.140625 -0.01172,0.3164062 -0.328125,0.60937495 C 53.407773,-0.5740625 53.16168,-0.50375 52.903867,-0.50375 c -0.621094,0 -1.347656,-0.45703125 -1.347656,-1.6992187 0,-1.3125 0.855469,-1.7226563 1.441406,-1.7226563 0.445313,0 0.75,0.234375 0.972656,0.5507813 z m 5.72168,-0.796875 c 0,-0.3398438 -0.01172,-1.0898438 -0.398437,-1.6875 -0.410157,-0.6210938 -1.019532,-0.7265625 -1.371094,-0.7265625 -1.113281,0 -2.003906,1.0546875 -2.003906,2.34375 0,1.31249995 0.949218,2.3554687 2.144531,2.3554687 0.632812,0 1.195312,-0.234375 1.59375,-0.515625 l -0.07031,-0.6445312 c -0.621093,0.51562495 -1.277343,0.5507812 -1.511718,0.5507812 -0.796875,0 -1.429688,-0.703125 -1.464844,-1.6757812 z m -3.023437,-0.5507813 c 0.152343,-0.7617187 0.679687,-1.2539062 1.253906,-1.2539062 0.515625,0 1.066406,0.3398437 1.195312,1.2539062 z m 7.614257,-4.1835937 V 1.5625e-4 h 2.613282 c 1.699218,0 3.046875,-1.51171875 3.046875,-3.39843745 0,-1.9335938 -1.335938,-3.515625 -3.058594,-3.515625 z m 0.855469,6.35156245 V -6.3514062 h 1.523438 c 1.394531,0 2.425781,1.2070312 2.425781,2.953125 0,1.6992187 -1.03125,2.83593745 -2.425781,2.83593745 z m 9.351563,-2.32031245 c 0,-1.0078125 -0.726563,-1.7109375 -1.640625,-1.7109375 -0.644532,0 -1.101563,0.1640625 -1.570313,0.4335937 l 0.07031,0.65625 c 0.515625,-0.375 1.007812,-0.5039062 1.5,-0.5039062 0.46875,0 0.867187,0.3984375 0.867187,1.1367187 v 0.4335938 c -1.5,0.011719 -2.765625,0.4335937 -2.765625,1.3125 0,0.42187495 0.269531,1.2304687 1.136719,1.2304687 0.140625,0 1.078125,-0.01171875 1.652344,-0.46875 V 1.5625e-4 h 0.75 z m -0.773438,1.5703125 c 0,0.1875 0,0.4335937 -0.339844,0.6210937 -0.292968,0.1875 -0.667968,0.1875 -0.773437,0.1875 -0.480469,0 -0.925781,-0.22265625 -0.925781,-0.6445312 0,-0.6914063 1.605468,-0.7617188 2.039062,-0.7851563 z m 3.333985,-2.53125 h 1.40625 v -0.5742188 h -1.40625 v -1.265625 h -0.691407 v 1.265625 h -0.867187 v 0.5742188 h 0.84375 v 2.6601562 c 0,0.59765625 0.128906,1.2890625 0.820312,1.2890625 0.703125,0 1.207032,-0.24609375 1.453125,-0.375 l -0.152343,-0.5859375 c -0.257813,0.2109375 -0.585938,0.328125 -0.902344,0.328125 -0.363281,0 -0.503906,-0.3046875 -0.503906,-0.8320312 z m 6.527343,1.6523437 c 0,-1.3359375 -0.996093,-2.4023437 -2.179687,-2.4023437 -1.230469,0 -2.191406,1.1015625 -2.191406,2.4023437 0,1.3125 1.007812,2.296875 2.179687,2.296875 1.195313,0 2.191406,-1.0078125 2.191406,-2.296875 z m -2.191406,1.6640625 c -0.691406,0 -1.40625,-0.5625 -1.40625,-1.7695312 0,-1.1953125 0.75,-1.6875 1.40625,-1.6875 0.691406,0 1.40625,0.515625 1.40625,1.6875 0,1.1835937 -0.667969,1.7695312 -1.40625,1.7695312 z m 5.917969,-3.75 c -0.527344,-0.234375 -0.925781,-0.3164062 -1.441406,-0.3164062 -0.246094,0 -1.652344,0 -1.652344,1.3007812 0,0.4921875 0.292969,0.8085938 0.539062,0.9960938 0.304688,0.2226562 0.527344,0.2695312 1.078125,0.375 0.351563,0.070312 0.9375,0.1875 0.9375,0.7148437 0,0.69140625 -0.785156,0.69140625 -0.9375,0.69140625 -0.808593,0 -1.371093,-0.375 -1.546875,-0.49218745 l -0.117187,0.67968745 c 0.316406,0.1640625 0.867187,0.43359375 1.675781,0.43359375 0.175781,0 0.726563,0 1.148438,-0.31640625 0.316406,-0.234375 0.480468,-0.6328125 0.480468,-1.06640625 0,-0.5507812 -0.363281,-0.8789062 -0.386718,-0.9140625 -0.386719,-0.3515625 -0.65625,-0.4101562 -1.160157,-0.5039062 -0.539062,-0.1054688 -1.007812,-0.1992188 -1.007812,-0.6914063 0,-0.6210937 0.726562,-0.6210937 0.855469,-0.6210937 0.316406,0 0.84375,0.046875 1.40625,0.3867187 z m 0,0"
       style="fill:#000000;fill-opacity:1;fill-rule:nonzero;stroke:none"
       aria-label="EstructurasdeDatos"
       transform="matrix(1.3333333,0,0,1.3333333,140.74667,89.546667)" />
    <path
       id="path7"
       d="m 38.53511,16.56442 h -77.07022 c -2.20094,0 -3.98511,-1.78416 -3.98511,-3.9851 V -7.79726 c 0,-2.20094 1.78417,-3.9851 3.98511,-3.9851 h 77.07022 c 2.20094,0 3.98511,1.78416 3.98511,3.9851 v 20.37658 c 0,2.20094 -1.78417,3.9851 -3.98511,3.9851 z"
       style="fill:#ffd9b3;fill-opacity:1;fill-rule:nonzero;stroke:#000000;stroke-width:0.3985;stroke-linecap:butt;stroke-linejoin:miter;stroke-miterlimit:10;stroke-dasharray:none;stroke-opacity:1"
       transform="matrix(1.3333333,0,0,-1.3333333,137.828,143.45867)" />
    <path
       id="path8"
       d="m 4.6279297,-6.6340391 c -0.5390625,-0.328125 -1.0898438,-0.5039062 -1.8164063,-0.5039062 -1.3828125,0 -2.24999996,0.984375 -2.24999996,1.96875 0,0.421875 0.140625,0.84375 0.53906246,1.265625 0.4101563,0.4453125 0.8554688,0.5625 1.4414063,0.703125 0.84375,0.2109375 0.9492187,0.2460937 1.21875,0.4921875 0.1992187,0.1640625 0.421875,0.4921875 0.421875,0.9257812 0,0.65625 -0.5507813,1.31250004 -1.453125,1.31250004 -0.4101563,0 -1.3007813,-0.09375 -2.14453126,-0.80859374 L 0.43261719,-0.46997656 C 1.3115234,0.08080469 2.1083984,0.22142969 2.7412109,0.22142969 c 1.3125,0 2.2265625,-1.0078125 2.2265625,-2.10937499 0,-0.6445313 -0.3046875,-1.125 -0.5273437,-1.359375 -0.46875,-0.5039063 -0.796875,-0.5859375 -1.7109375,-0.8203125 -0.5742188,-0.140625 -0.7382813,-0.1757813 -1.03125,-0.4335938 -0.070312,-0.058594 -0.3515625,-0.3515625 -0.3515625,-0.7851562 0,-0.5976563 0.5390625,-1.1953125 1.453125,-1.1953125 0.8320312,0 1.3125,0.3398437 1.6875,0.6445312 z m 5.0332031,4.453125 c 0,-0.3398437 -0.011719,-1.0898437 -0.3984375,-1.6875 -0.4101562,-0.6210937 -1.0195312,-0.7265625 -1.3710937,-0.7265625 -1.1132813,0 -2.0039063,1.0546875 -2.0039063,2.34375 0,1.31250004 0.9492188,2.35546879 2.1445313,2.35546879 0.6328125,0 1.1953125,-0.234375 1.59375,-0.515625 L 9.5556641,-1.0559141 c -0.6210938,0.51562504 -1.2773438,0.55078129 -1.5117188,0.55078129 -0.796875,0 -1.4296875,-0.70312499 -1.4648437,-1.67578129 z M 6.6376953,-2.7316953 c 0.1523438,-0.7617188 0.6796875,-1.2539063 1.2539063,-1.2539063 0.515625,0 1.0664062,0.3398438 1.1953125,1.2539063 z m 4.8837887,0.5976562 c 0,-0.9960937 0.726563,-1.7109375 1.699219,-1.734375 v -0.6679687 c -0.890625,0.011719 -1.429687,0.5039062 -1.746094,0.9609375 v -0.9140625 h -0.691406 v 4.48828124 h 0.738281 z m 3.47461,-4.640625 h -0.890625 v 0.890625 h 0.890625 z m -0.07031,2.3554688 h -0.75 v 4.41796874 h 0.75 z m 4.945313,2.2382812 c 0,-0.3398437 -0.01172,-1.0898437 -0.398438,-1.6875 -0.410156,-0.6210937 -1.019531,-0.7265625 -1.371094,-0.7265625 -1.113281,0 -2.003906,1.0546875 -2.003906,2.34375 0,1.31250004 0.949219,2.35546879 2.144531,2.35546879 0.632813,0 1.195313,-0.234375 1.59375,-0.515625 L 19.76563,-1.0559141 c -0.621094,0.51562504 -1.277344,0.55078129 -1.511719,0.55078129 -0.796875,0 -1.429687,-0.70312499 -1.464844,-1.67578129 z M 16.847656,-2.7316953 C 17,-3.4934141 17.527344,-3.9856016 18.101562,-3.9856016 c 0.515625,0 1.066407,0.3398438 1.195313,1.2539063 z m 6.747071,-1.546875 c -0.527344,-0.234375 -0.925782,-0.3164063 -1.441407,-0.3164063 -0.246093,0 -1.652343,0 -1.652343,1.3007813 0,0.4921875 0.292968,0.8085937 0.539062,0.9960937 0.304688,0.2226563 0.527344,0.2695313 1.078125,0.375 0.351563,0.070312 0.9375,0.1875 0.9375,0.7148438 0,0.69140624 -0.785156,0.69140624 -0.9375,0.69140624 -0.808594,0 -1.371094,-0.375 -1.546875,-0.49218754 l -0.117187,0.67968754 c 0.316406,0.1640625 0.867187,0.43359375 1.675781,0.43359375 0.175781,0 0.726562,0 1.148437,-0.31640625 0.316407,-0.234375 0.480469,-0.6328125 0.480469,-1.06640624 0,-0.5507813 -0.363281,-0.8789063 -0.386719,-0.9140625 -0.386718,-0.3515625 -0.65625,-0.4101563 -1.160156,-0.5039063 -0.539062,-0.1054687 -1.007812,-0.1992187 -1.007812,-0.6914062 0,-0.6210938 0.726562,-0.6210938 0.855468,-0.6210938 0.316407,0 0.84375,0.046875 1.40625,0.3867188 z m 0,0"
       style="fill:#000000;fill-opacity:1;fill-rule:nonzero;stroke:none"
       aria-label="Series"
       transform="matrix(1.3333333,0,0,1.3333333,121.83333,143.45867)" />
    <path
       id="path9"
       d="m 38.53511,16.56442 h -77.07022 c -2.20094,0 -3.98511,-1.78416 -3.98511,-3.9851 V -7.79726 c 0,-2.20094 1.78417,-3.9851 3.98511,-3.9851 h 77.07022 c 2.20094,0 3.98511,1.78416 3.98511,3.9851 v 20.37658 c 0,2.20094 -1.78417,3.9851 -3.98511,3.9851 z"
       style="fill:#ffd9b3;fill-opacity:1;fill-rule:nonzero;stroke:#000000;stroke-width:0.3985;stroke-linecap:butt;stroke-linejoin:miter;stroke-miterlimit:10;stroke-dasharray:none;stroke-opacity:1"
       transform="matrix(1.3333333,0,0,-1.3333333,260.6,143.45867)" />
    <path
       id="path10"
       d="m 0.9605625,-6.9152891 v 6.91406254 h 2.6132812 c 1.6992188,0 3.046875,-1.51171874 3.046875,-3.39843754 0,-1.9335937 -1.3359375,-3.515625 -3.0585937,-3.515625 z m 0.8554687,6.35156254 V -6.3527891 h 1.5234375 c 1.3945313,0 2.4257813,1.2070313 2.4257813,2.953125 0,1.6992188 -1.03125,2.83593754 -2.4257813,2.83593754 z M 11.167594,-2.8840391 c 0,-1.0078125 -0.726563,-1.7109375 -1.6406253,-1.7109375 -0.6445312,0 -1.1015625,0.1640625 -1.5703125,0.4335938 l 0.070312,0.65625 c 0.515625,-0.375 1.0078125,-0.5039063 1.5,-0.5039063 0.46875,0 0.8671868,0.3984375 0.8671868,1.1367188 v 0.4335937 c -1.4999993,0.011719 -2.7656243,0.4335938 -2.7656243,1.3125 0,0.42187504 0.2695313,1.23046879 1.1367188,1.23046879 0.140625,0 1.078125,-0.01171875 1.6523435,-0.46875 v 0.36328125 h 0.75 z m -0.773438,1.5703125 c 0,0.1875 0,0.43359379 -0.339844,0.62109379 -0.2929683,0.1875 -0.6679683,0.1875 -0.773437,0.1875 -0.4804688,0 -0.9257813,-0.22265625 -0.9257813,-0.64453129 0,-0.6914062 1.6054688,-0.7617187 2.0390623,-0.7851562 z m 3.333985,-2.53125 h 1.40625 v -0.5742187 h -1.40625 v -1.265625 h -0.691407 v 1.265625 h -0.867187 v 0.5742187 h 0.84375 v 2.6601563 c 0,0.59765624 0.128906,1.28906249 0.820312,1.28906249 0.703125,0 1.207032,-0.24609375 1.453125,-0.375 l -0.152343,-0.5859375 c -0.257813,0.2109375 -0.585938,0.328125 -0.902344,0.328125 -0.363281,0 -0.503906,-0.3046875 -0.503906,-0.83203129 z m 5.824218,0.9609375 c 0,-1.0078125 -0.726562,-1.7109375 -1.640625,-1.7109375 -0.644531,0 -1.101562,0.1640625 -1.570312,0.4335938 l 0.07031,0.65625 c 0.515625,-0.375 1.007813,-0.5039063 1.5,-0.5039063 0.46875,0 0.867188,0.3984375 0.867188,1.1367188 v 0.4335937 c -1.5,0.011719 -2.765625,0.4335938 -2.765625,1.3125 0,0.42187504 0.269531,1.23046879 1.136719,1.23046879 0.140625,0 1.078125,-0.01171875 1.652343,-0.46875 v 0.36328125 h 0.75 z m -0.773437,1.5703125 c 0,0.1875 0,0.43359379 -0.339844,0.62109379 -0.292969,0.1875 -0.667969,0.1875 -0.773437,0.1875 -0.480469,0 -0.925782,-0.22265625 -0.925782,-0.64453129 0,-0.6914062 1.605469,-0.7617187 2.039063,-0.7851562 z m 6.418945,-1.828125 v -0.609375 h -3 v -2.4960937 h 1.300781 c 0.117188,0 0.234375,0.011719 0.363282,0.011719 h 1.746093 v -0.6445312 h -4.300781 v 6.87890624 h 0.890625 V -3.1418516 Z m 2.124024,1.0078125 c 0,-0.9960937 0.726562,-1.7109375 1.699218,-1.734375 v -0.6679687 c -0.890625,0.011719 -1.429687,0.5039062 -1.746093,0.9609375 v -0.9140625 h -0.691407 v 4.48828124 h 0.738282 z m 5.818359,-0.75 c 0,-1.0078125 -0.726563,-1.7109375 -1.640625,-1.7109375 -0.644531,0 -1.101563,0.1640625 -1.570313,0.4335938 l 0.07031,0.65625 c 0.515625,-0.375 1.007812,-0.5039063 1.5,-0.5039063 0.46875,0 0.867187,0.3984375 0.867187,1.1367188 v 0.4335937 c -1.5,0.011719 -2.765625,0.4335938 -2.765625,1.3125 0,0.42187504 0.269532,1.23046879 1.136719,1.23046879 0.140625,0 1.078125,-0.01171875 1.652344,-0.46875 v 0.36328125 h 0.75 z m -0.773438,1.5703125 c 0,0.1875 0,0.43359379 -0.339843,0.62109379 -0.292969,0.1875 -0.667969,0.1875 -0.773438,0.1875 -0.480469,0 -0.925781,-0.22265625 -0.925781,-0.64453129 0,-0.6914062 1.605469,-0.7617187 2.039062,-0.7851562 z m 8.689454,-1.6523437 c 0,-0.6679688 -0.164063,-1.5703125 -1.359375,-1.5703125 -0.597657,0 -1.125,0.28125 -1.488282,0.8203125 -0.257812,-0.7617188 -0.960937,-0.8203125 -1.277343,-0.8203125 -0.714844,0 -1.183594,0.4101562 -1.453125,0.7734375 v -0.7265625 h -0.714844 v 4.48828124 h 0.773437 V -2.4387266 c 0,-0.6796875 0.269532,-1.4882812 1.007813,-1.4882812 0.925781,0 0.972656,0.6445312 0.972656,1.03125 v 2.89453124 h 0.785156 V -2.4387266 c 0,-0.6796875 0.269532,-1.4882812 0.996094,-1.4882812 0.9375,0 0.984375,0.6445312 0.984375,1.03125 v 2.89453124 h 0.773438 z m 4.936523,0.7851562 c 0,-0.3398437 -0.01172,-1.0898437 -0.398437,-1.6875 -0.410157,-0.6210937 -1.019532,-0.7265625 -1.371094,-0.7265625 -1.113281,0 -2.003906,1.0546875 -2.003906,2.34375 0,1.31250004 0.949218,2.35546879 2.144531,2.35546879 0.632812,0 1.195312,-0.234375 1.59375,-0.515625 L 45.88732,-1.0559141 c -0.621093,0.51562504 -1.277343,0.55078129 -1.511718,0.55078129 -0.796875,0 -1.429688,-0.70312499 -1.464844,-1.67578129 z m -3.023437,-0.5507812 c 0.152343,-0.7617188 0.679687,-1.2539063 1.253906,-1.2539063 0.515625,0 1.066406,0.3398438 1.195312,1.2539063 z m 6.75,-1.546875 c -0.527344,-0.234375 -0.925782,-0.3164063 -1.441407,-0.3164063 -0.246093,0 -1.652343,0 -1.652343,1.3007813 0,0.4921875 0.292968,0.8085937 0.539062,0.9960937 0.304688,0.2226563 0.527344,0.2695313 1.078125,0.375 0.351563,0.070312 0.9375,0.1875 0.9375,0.7148438 0,0.69140624 -0.785156,0.69140624 -0.9375,0.69140624 -0.808594,0 -1.371094,-0.375 -1.546875,-0.49218754 l -0.117187,0.67968754 c 0.316406,0.1640625 0.867187,0.43359375 1.675781,0.43359375 0.175781,0 0.726562,0 1.148437,-0.31640625 0.316407,-0.234375 0.480469,-0.6328125 0.480469,-1.06640624 0,-0.5507813 -0.363281,-0.8789063 -0.386719,-0.9140625 -0.386718,-0.3515625 -0.65625,-0.4101563 -1.160156,-0.5039063 -0.539062,-0.1054687 -1.007812,-0.1992187 -1.007812,-0.6914062 0,-0.6210938 0.726562,-0.6210938 0.855468,-0.6210938 0.316407,0 0.84375,0.046875 1.40625,0.3867188 z m 0,0"
       style="fill:#000000;fill-opacity:1;fill-rule:nonzero;stroke:none"
       aria-label="DataFrames"
       transform="matrix(1.3333333,0,0,1.3333333,227.188,143.45867)" />
    <path
       id="path11"
       d="m 47.35056,16.56442 h -94.70112 c -2.20094,0 -3.9851,-1.78416 -3.9851,-3.9851 V -7.79726 c 0,-2.20094 1.78416,-3.9851 3.9851,-3.9851 h 94.70112 c 2.20094,0 3.9851,1.78416 3.9851,3.9851 v 20.37658 c 0,2.20094 -1.78416,3.9851 -3.9851,3.9851 z"
       style="fill:#ffd9b3;fill-opacity:1;fill-rule:nonzero;stroke:#000000;stroke-width:0.3985;stroke-linecap:butt;stroke-linejoin:miter;stroke-miterlimit:10;stroke-dasharray:none;stroke-opacity:1"
       transform="matrix(1.3333333,0,0,-1.3333333,339.94,89.546667)" />
    <path
       id="path12"
       d="M 5.2855625,-3.5389062 C 4.934,-2.6248437 4.46525,-1.394375 4.3480625,-0.925625 4.2894687,-1.1365625 4.1722812,-1.4998437 4.0199375,-1.9217187 l -1.5585938,-4.125 L 2.1215,-6.9139062 H 0.9965 V 1.5625e-4 H 1.7699375 V -6.175625 h 0.011719 c 0.058593,0.3164063 0.457031,1.40625 0.7148435,2.0859375 L 3.9730625,-0.2225 H 4.699625 L 6.0238437,-3.69125 C 6.34025,-4.4998437 6.434,-4.7459375 6.5043125,-4.9451562 c 0.1054687,-0.2929688 0.375,-1.0078125 0.421875,-1.2421875 l 0.011719,0.011719 V 1.5625e-4 H 7.7113437 V -6.9139062 H 6.574625 Z m 7.4033205,0.65625 c 0,-1.0078125 -0.726563,-1.7109375 -1.640625,-1.7109375 -0.644531,0 -1.1015627,0.1640625 -1.5703127,0.4335937 l 0.070312,0.65625 c 0.5156257,-0.375 1.0078127,-0.5039062 1.5000007,-0.5039062 0.46875,0 0.867187,0.3984375 0.867187,1.1367187 v 0.4335938 c -1.5,0.011719 -2.7656252,0.4335937 -2.7656252,1.3125 0,0.42187495 0.2695313,1.2304687 1.1367182,1.2304687 0.140625,0 1.078125,-0.01171875 1.652344,-0.46875 V 1.5625e-4 h 0.75 z m -0.773438,1.5703125 c 0,0.1875 0,0.4335937 -0.339843,0.6210937 -0.292969,0.1875 -0.667969,0.1875 -0.773438,0.1875 -0.480469,0 -0.9257812,-0.22265625 -0.9257812,-0.6445312 0,-0.6914063 1.6054692,-0.7617188 2.0390622,-0.7851563 z m 5.926758,-1.6523438 c 0,-0.65625 -0.152344,-1.5703125 -1.371094,-1.5703125 -0.890625,0 -1.382812,0.6796875 -1.441406,0.7617188 V -4.488125 H 14.314859 V 1.5625e-4 h 0.773438 V -2.4373437 c 0,-0.65625 0.246094,-1.4882813 1.007812,-1.4882813 0.960938,0 0.960938,0.703125 0.960938,1.03125 V 1.5625e-4 h 0.785156 z m 2.44043,-3.8085937 h -0.890625 v 0.890625 h 0.890625 z m -0.07031,2.3554687 h -0.75 V 1.5625e-4 h 0.75 z m 2.414063,3.9609375 c 0.304687,0.29296875 0.75,0.5625 1.347656,0.5625 0.960938,0 1.839844,-0.97265625 1.839844,-2.3320312 0,-1.1953125 -0.632813,-2.3085938 -1.582031,-2.3085938 -0.597657,0 -1.171875,0.2109375 -1.640625,0.5976563 V -4.4178125 H 21.852945 V 1.93375 h 0.773438 z m 0,-2.859375 c 0.234375,-0.3515625 0.632812,-0.5742187 1.054687,-0.5742187 0.761719,0 1.359375,0.75 1.359375,1.6640625 0,1.03125 -0.714843,1.7226562 -1.453125,1.7226562 -0.398437,0 -0.65625,-0.19921875 -0.855468,-0.45703125 C 22.626383,-1.113125 22.626383,-1.1365625 22.626383,-1.3123437 Z m 7.889648,-1.1015625 H 29.730875 V -1.535 c 0,0.75 -0.550781,1.1015625 -1.195313,1.1015625 -0.703125,0 -0.773437,-0.26953125 -0.773437,-0.6914062 v -3.2929688 h -0.773438 v 3.328125 c 0,0.7265625 0.222657,1.1953125 1.054688,1.1953125 0.527344,0 1.230469,-0.15234375 1.722656,-0.5859375 V 1.5625e-4 h 0.75 z m 2.370117,-2.4960937 h -0.75 V 1.5625e-4 h 0.75 z m 4.795899,4.03125 c 0,-1.0078125 -0.726563,-1.7109375 -1.640625,-1.7109375 -0.644531,0 -1.101563,0.1640625 -1.570313,0.4335937 l 0.07031,0.65625 c 0.515625,-0.375 1.007812,-0.5039062 1.5,-0.5039062 0.46875,0 0.867187,0.3984375 0.867187,1.1367187 v 0.4335938 c -1.5,0.011719 -2.765625,0.4335937 -2.765625,1.3125 0,0.42187495 0.269532,1.2304687 1.136719,1.2304687 0.140625,0 1.078125,-0.01171875 1.652344,-0.46875 V 1.5625e-4 h 0.75 z m -0.773438,1.5703125 c 0,0.1875 0,0.4335937 -0.339843,0.6210937 -0.292969,0.1875 -0.667969,0.1875 -0.773438,0.1875 -0.480469,0 -0.925781,-0.22265625 -0.925781,-0.6445312 0,-0.6914063 1.605469,-0.7617188 2.039062,-0.7851563 z M 42.586344,-4.16 c -0.597657,-0.3398437 -0.9375,-0.4335937 -1.535157,-0.4335937 -1.394531,0 -2.191406,1.2070312 -2.191406,2.3789062 0,1.2421875 0.902344,2.3203125 2.144531,2.3203125 0.539063,0 1.089844,-0.140625 1.628907,-0.50390625 L 42.574625,-1.06625 c -0.515625,0.3984375 -1.054688,0.5390625 -1.558594,0.5390625 -0.820312,0 -1.382812,-0.7148437 -1.382812,-1.6992187 0,-0.7734375 0.363281,-1.7226563 1.417968,-1.7226563 0.527344,0 0.867188,0.070312 1.40625,0.4335938 z m 1.96582,-2.6132812 h -0.890625 v 0.890625 h 0.890625 z m -0.07031,2.3554687 h -0.75 V 1.5625e-4 h 0.75 z m 4.971679,-2.4960937 h -0.785156 l -1.324219,1.6640625 h 0.609375 z m 0.527344,4.7226562 c 0,-1.3359375 -0.996094,-2.4023437 -2.179688,-2.4023437 -1.230468,0 -2.191406,1.1015625 -2.191406,2.4023437 0,1.3125 1.007813,2.296875 2.179688,2.296875 1.195312,0 2.191406,-1.0078125 2.191406,-2.296875 z m -2.191406,1.6640625 c -0.691407,0 -1.40625,-0.5625 -1.40625,-1.7695312 0,-1.1953125 0.75,-1.6875 1.40625,-1.6875 0.691406,0 1.40625,0.515625 1.40625,1.6875 0,1.1835937 -0.667969,1.7695312 -1.40625,1.7695312 z m 6.832031,-2.4375 c 0,-0.65625 -0.152344,-1.5703125 -1.371094,-1.5703125 -0.890625,0 -1.382812,0.6796875 -1.441406,0.7617188 V -4.488125 H 51.094156 V 1.5625e-4 h 0.773438 V -2.4373437 c 0,-0.65625 0.246093,-1.4882813 1.007812,-1.4882813 0.960938,0 0.960938,0.703125 0.960938,1.03125 V 1.5625e-4 H 54.6215 Z m 8.452148,-3.9492187 h -0.75 v 2.9296875 C 61.796305,-4.4178125 61.245523,-4.535 60.870523,-4.535 c -0.984375,0 -1.757812,1.0429688 -1.757812,2.3203125 0,1.3125 0.761719,2.3203125 1.710937,2.3203125 0.328125,0 0.914063,-0.08203125 1.476563,-0.62109375 v 0.515625 h 0.773437 z m -0.773437,5.53125 c 0,0.140625 -0.01172,0.3164062 -0.328125,0.60937495 -0.234375,0.19921875 -0.480469,0.26953125 -0.738281,0.26953125 -0.621094,0 -1.347657,-0.45703125 -1.347657,-1.6992187 0,-1.3125 0.855469,-1.7226563 1.441407,-1.7226563 0.445312,0 0.75,0.234375 0.972656,0.5507813 z m 5.72168,-0.796875 c 0,-0.3398438 -0.01172,-1.0898438 -0.398438,-1.6875 -0.410156,-0.6210938 -1.019531,-0.7265625 -1.371094,-0.7265625 -1.113281,0 -2.003906,1.0546875 -2.003906,2.34375 0,1.31249995 0.949219,2.3554687 2.144531,2.3554687 0.632813,0 1.195313,-0.234375 1.59375,-0.515625 l -0.07031,-0.6445312 c -0.621094,0.51562495 -1.277344,0.5507812 -1.511719,0.5507812 -0.796875,0 -1.429687,-0.703125 -1.464844,-1.6757812 z m -3.023438,-0.5507813 c 0.152344,-0.7617187 0.679688,-1.2539062 1.253906,-1.2539062 0.515625,0 1.066407,0.3398437 1.195313,1.2539062 z m 7.605469,-4.1835937 V 1.5625e-4 h 2.613281 c 1.699219,0 3.046875,-1.51171875 3.046875,-3.39843745 0,-1.9335938 -1.335937,-3.515625 -3.058594,-3.515625 z m 0.855469,6.35156245 V -6.3514062 h 1.523437 c 1.394531,0 2.425781,1.2070312 2.425781,2.953125 0,1.6992187 -1.03125,2.83593745 -2.425781,2.83593745 z m 9.360351,-2.32031245 c 0,-1.0078125 -0.726562,-1.7109375 -1.640625,-1.7109375 -0.644531,0 -1.101562,0.1640625 -1.570312,0.4335937 l 0.07031,0.65625 c 0.515625,-0.375 1.007813,-0.5039062 1.5,-0.5039062 0.46875,0 0.867188,0.3984375 0.867188,1.1367187 v 0.4335938 c -1.5,0.011719 -2.765625,0.4335937 -2.765625,1.3125 0,0.42187495 0.269531,1.2304687 1.136718,1.2304687 0.140625,0 1.078125,-0.01171875 1.652344,-0.46875 V 1.5625e-4 h 0.75 z m -0.773437,1.5703125 c 0,0.1875 0,0.4335937 -0.339844,0.6210937 -0.292969,0.1875 -0.667969,0.1875 -0.773438,0.1875 -0.480468,0 -0.925781,-0.22265625 -0.925781,-0.6445312 0,-0.6914063 1.605469,-0.7617188 2.039063,-0.7851563 z m 3.325195,-2.53125 h 1.40625 V -4.4178125 H 85.3715 v -1.265625 h -0.691406 v 1.265625 h -0.867188 v 0.5742188 h 0.84375 v 2.6601562 c 0,0.59765625 0.128906,1.2890625 0.820313,1.2890625 0.703125,0 1.207031,-0.24609375 1.453125,-0.375 L 86.77775,-0.8553125 c -0.257813,0.2109375 -0.585938,0.328125 -0.902344,0.328125 -0.363281,0 -0.503906,-0.3046875 -0.503906,-0.8320312 z m 6.527344,1.6523437 c 0,-1.3359375 -0.996094,-2.4023437 -2.179688,-2.4023437 -1.230469,0 -2.191406,1.1015625 -2.191406,2.4023437 0,1.3125 1.007812,2.296875 2.179687,2.296875 1.195313,0 2.191407,-1.0078125 2.191407,-2.296875 z m -2.191407,1.6640625 c -0.691406,0 -1.40625,-0.5625 -1.40625,-1.7695312 0,-1.1953125 0.75,-1.6875 1.40625,-1.6875 0.691407,0 1.40625,0.515625 1.40625,1.6875 0,1.1835937 -0.667968,1.7695312 -1.40625,1.7695312 z m 5.917969,-3.75 c -0.527344,-0.234375 -0.925781,-0.3164062 -1.441406,-0.3164062 -0.246094,0 -1.652344,0 -1.652344,1.3007812 0,0.4921875 0.292969,0.8085938 0.539063,0.9960938 0.304687,0.2226562 0.527343,0.2695312 1.078125,0.375 0.351562,0.070312 0.9375,0.1875 0.9375,0.7148437 0,0.69140625 -0.785157,0.69140625 -0.9375,0.69140625 -0.808594,0 -1.371094,-0.375 -1.546875,-0.49218745 l -0.117188,0.67968745 c 0.316406,0.1640625 0.867188,0.43359375 1.675781,0.43359375 0.175782,0 0.726563,0 1.148438,-0.31640625 0.316406,-0.234375 0.480469,-0.6328125 0.480469,-1.06640625 0,-0.5507812 -0.363282,-0.8789062 -0.386719,-0.9140625 -0.386719,-0.3515625 -0.65625,-0.4101562 -1.160156,-0.5039062 -0.539063,-0.1054688 -1.007813,-0.1992188 -1.007813,-0.6914063 0,-0.6210937 0.726563,-0.6210937 0.855469,-0.6210937 0.316406,0 0.84375,0.046875 1.40625,0.3867187 z m 0,0"
       style="fill:#000000;fill-opacity:1;fill-rule:nonzero;stroke:none"
       aria-label="Manipulaci´ondeDatos"
       transform="matrix(1.3333333,0,0,1.3333333,275.92133,89.546667)" />
    <path
       id="path13"
       d="M -35.95552,-11.98161 -64.77956,-23.50082"
       style="fill:none;stroke:#000000;stroke-width:0.3985;stroke-linecap:butt;stroke-linejoin:miter;stroke-miterlimit:10;stroke-dasharray:none;stroke-opacity:1"
       transform="matrix(1.3333333,0,0,-1.3333333,205.09067,35.634667)" />
    <path
       id="path14"
       d="M -1.19551,1.59401 C -1.09587,0.99626 0,0.09961 0.29886,0 0,-0.09961 -1.09587,-0.99626 -1.19551,-1.59401"
       style="fill:none;stroke:#000000;stroke-width:0.31879;stroke-linecap:round;stroke-linejoin:round;stroke-miterlimit:10;stroke-dasharray:none;stroke-opacity:1"
       transform="matrix(-1.23808,0.49477333,0.49477333,1.23808,118.71792,66.96908)" />
    <path
       id="path15"
       d="M -1.56696,-11.98161 -2.79219,-23.21532"
       style="fill:none;stroke:#000000;stroke-width:0.3985;stroke-linecap:butt;stroke-linejoin:miter;stroke-miterlimit:10;stroke-dasharray:none;stroke-opacity:1"
       transform="matrix(1.3333333,0,0,-1.3333333,205.09067,35.634667)" />
    <path
       id="path16"
       d="M -1.19551,1.59401 C -1.09587,0.99626 0,0.09961 0.29886,0 0,-0.09961 -1.09587,-0.99626 -1.19551,-1.59401"
       style="fill:none;stroke:#000000;stroke-width:0.31879;stroke-linecap:round;stroke-linejoin:round;stroke-miterlimit:10;stroke-dasharray:none;stroke-opacity:1"
       transform="matrix(-0.14453333,1.3254133,1.3254133,0.14453333,201.36776,66.5884)" />
    <path
       id="path17"
       d="M -20.77519,-52.41617 -33.746,-63.8031"
       style="fill:none;stroke:#000000;stroke-width:0.3985;stroke-linecap:butt;stroke-linejoin:miter;stroke-miterlimit:10;stroke-dasharray:none;stroke-opacity:1"
       transform="matrix(1.3333333,0,0,-1.3333333,205.09067,35.634667)" />
    <path
       id="path18"
       d="M -1.19551,1.59401 C -1.09587,0.99626 0,0.09961 0.29886,0 0,-0.09961 -1.09587,-0.99626 -1.19551,-1.59401"
       style="fill:none;stroke:#000000;stroke-width:0.31879;stroke-linecap:round;stroke-linejoin:round;stroke-miterlimit:10;stroke-dasharray:none;stroke-opacity:1"
       transform="matrix(-1.0019467,0.8796,0.8796,1.0019467,160.09601,120.70547)" />
    <path
       id="path19"
       d="M 11.95975,-52.41617 24.93056,-63.8031"
       style="fill:none;stroke:#000000;stroke-width:0.3985;stroke-linecap:butt;stroke-linejoin:miter;stroke-miterlimit:10;stroke-dasharray:none;stroke-opacity:1"
       transform="matrix(1.3333333,0,0,-1.3333333,205.09067,35.634667)" />
    <path
       id="path20"
       d="M -1.19551,1.59401 C -1.09587,0.99626 0,0.09961 0.29886,0 0,-0.09961 -1.09587,-0.99626 -1.19551,-1.59401"
       style="fill:none;stroke:#000000;stroke-width:0.31879;stroke-linecap:round;stroke-linejoin:round;stroke-miterlimit:10;stroke-dasharray:none;stroke-opacity:1"
       transform="matrix(1.0019467,0.8796,0.8796,-1.0019467,238.33139,120.70547)" />
    <path
       id="path21"
       d="M 35.95552,-11.98161 64.77956,-23.50082"
       style="fill:none;stroke:#000000;stroke-width:0.3985;stroke-linecap:butt;stroke-linejoin:miter;stroke-miterlimit:10;stroke-dasharray:none;stroke-opacity:1"
       transform="matrix(1.3333333,0,0,-1.3333333,205.09067,35.634667)" />
    <path
       id="path22"
       d="M -1.19551,1.59401 C -1.09587,0.99626 0,0.09961 0.29886,0 0,-0.09961 -1.09587,-0.99626 -1.19551,-1.59401"
       style="fill:none;stroke:#000000;stroke-width:0.31879;stroke-linecap:round;stroke-linejoin:round;stroke-miterlimit:10;stroke-dasharray:none;stroke-opacity:1"
       transform="matrix(1.23808,0.49477333,0.49477333,-1.23808,291.46341,66.96908)" />
  </g>
</svg>
